<svg xmlns="http://www.w3.org/2000/svg" viewBox="0 0 64 64" width="64" height="64"><defs><radialGradient id="u1rg"><stop offset="0" stop-color="#d946ef" stop-opacity=".42"/><stop offset="1" stop-color="#d946ef" stop-opacity="0"/></radialGradient><linearGradient id="u1g0" x1="0" y1="0" x2=".35" y2="1"><stop offset="0" stop-color="#7d838b"/><stop offset=".55" stop-color="#1f2937"/><stop offset="1" stop-color="#151928"/></linearGradient><linearGradient id="u1g1" x1="0" y1="0" x2=".35" y2="1"><stop offset="0" stop-color="#fdda80"/><stop offset=".55" stop-color="#fbbf24"/><stop offset="1" stop-color="#83641e"/></linearGradient><linearGradient id="u1g2" x1="0" y1="0" x2=".35" y2="1"><stop offset="0" stop-color="#eef2f6"/><stop offset=".55" stop-color="#e2e8f0"/><stop offset="1" stop-color="#767884"/></linearGradient></defs><circle cx="32" cy="32" r="31" fill="url(#u1rg)"/><ellipse cx="32" cy="4.5" rx="12" ry="3" fill="none" stroke="#fcd34d" stroke-width="1.8" opacity=".9"/><g transform="rotate(45 32 32)"><rect x="29.6" y="42.080000000000005" width="4.800000000000001" height="13.44" rx="1.7999999999999998" fill="url(#u1g0)" stroke="#0e0e1e" stroke-width="1.8" stroke-linejoin="round"/><circle cx="32" cy="57.02" r="2.7" fill="url(#u1g1)" stroke="#35291a" stroke-width="1.8" stroke-linejoin="round"/><path d="M29 42.080000000000005Q34 23.040000000000003 34.5 4Q40.5 23.040000000000003 35 42.080000000000005Z" fill="url(#u1g2)" stroke="#31303f" stroke-width="1.8" stroke-linejoin="round"/><path d="M32.9 39.080000000000005Q37.9 23.040000000000003 34.5 8" fill="none" stroke="#f3f6f9" stroke-width="1.1" stroke-linecap="round" stroke-linejoin="round" opacity="0.8"/><rect x="23" y="40.080000000000005" width="18" height="4" rx="1.6" fill="url(#u1g1)" stroke="#35291a" stroke-width="1.8" stroke-linejoin="round"/><path d="M41 42.080000000000005Q45 50.080000000000005 35 56.080000000000005" fill="none" stroke="#fbbf24" stroke-width="2.6" stroke-linecap="round" stroke-linejoin="round"/></g><path d="M8 6.6L8.952 9.048L11.4 10L8.952 10.952L8 13.4L7.048 10.952L4.6 10L7.048 9.048Z" fill="#fde68a"/><path d="M57 53.2L57.784 55.216L59.8 56L57.784 56.784L57 58.8L56.216 56.784L54.2 56L56.216 55.216Z" fill="#fde68a"/></svg>
