<svg xmlns="http://www.w3.org/2000/svg" viewBox="0 0 64 64" width="64" height="64"><defs><radialGradient id="u33rg"><stop offset="0" stop-color="#10b981" stop-opacity=".42"/><stop offset="1" stop-color="#10b981" stop-opacity="0"/></radialGradient><linearGradient id="u33g0" x1="0" y1="0" x2=".35" y2="1"><stop offset="0" stop-color="#98b374"/><stop offset=".55" stop-color="#4d7c0f"/><stop offset="1" stop-color="#2c4214"/></linearGradient><linearGradient id="u33g1" x1="0" y1="0" x2=".35" y2="1"><stop offset="0" stop-color="#cacaca"/><stop offset=".55" stop-color="#a3a3a3"/><stop offset="1" stop-color="#57565e"/></linearGradient><linearGradient id="u33g2" x1="0" y1="0" x2=".35" y2="1"><stop offset="0" stop-color="#eef2f6"/><stop offset=".55" stop-color="#e2e8f0"/><stop offset="1" stop-color="#767884"/></linearGradient><linearGradient id="u33g3" x1="0" y1="0" x2=".35" y2="1"><stop offset="0" stop-color="#fccde6"/><stop offset=".55" stop-color="#f9a8d4"/><stop offset="1" stop-color="#825876"/></linearGradient><linearGradient id="u33g4" x1="0" y1="0" x2=".35" y2="1"><stop offset="0" stop-color="#fde3f2"/><stop offset=".55" stop-color="#fbcfe8"/><stop offset="1" stop-color="#836c80"/></linearGradient></defs><circle cx="32" cy="32" r="31" fill="url(#u33rg)"/><ellipse cx="32" cy="33" rx="30" ry="9" fill="none" stroke="#85e5c2" stroke-width="1.4" stroke-opacity=".45" transform="rotate(-22 32 33)"/><g transform="rotate(45 32 32)"><rect x="29.8" y="42.080000000000005" width="4.4" height="13.44" rx="1.65" fill="url(#u33g0)" stroke="#161d16" stroke-width="1.8" stroke-linejoin="round"/><circle cx="32" cy="57.02" r="2.475" fill="url(#u33g1)" stroke="#262431" stroke-width="1.8" stroke-linejoin="round"/><path d="M29.25 42.080000000000005Q32.25 23.040000000000003 33.5 4Q38.05 23.040000000000003 34.75 42.080000000000005Z" fill="url(#u33g2)" stroke="#31303f" stroke-width="1.8" stroke-linejoin="round"/><path d="M32.825 39.080000000000005Q35.825 23.040000000000003 33.5 8" fill="none" stroke="#f3f6f9" stroke-width="1.1" stroke-linecap="round" stroke-linejoin="round" opacity="0.8"/><ellipse cx="32" cy="42.080000000000005" rx="6" ry="2.6" fill="url(#u33g1)" stroke="#262431" stroke-width="1.8" stroke-linejoin="round"/></g><path d="M0 -4Q3.2 -1.2 0 4Q-3.2 -1.2 0 -4Z" fill="url(#u33g3)" stroke="#35253a" stroke-width="1" stroke-linejoin="round" transform="translate(12 16) rotate(20)"/><path d="M0 -3.6Q2.8800000000000003 -1.08 0 3.6Q-2.8800000000000003 -1.08 0 -3.6Z" fill="url(#u33g3)" stroke="#35253a" stroke-width="1" stroke-linejoin="round" transform="translate(50 50) rotate(-40)"/><path d="M0 -3Q2.4000000000000004 -0.8999999999999999 0 3Q-2.4000000000000004 -0.8999999999999999 0 -3Z" fill="url(#u33g4)" stroke="#352c3d" stroke-width="1" stroke-linejoin="round" transform="translate(16 46) rotate(70)"/></svg>
