<svg xmlns="http://www.w3.org/2000/svg" viewBox="0 0 64 64" width="64" height="64"><defs><radialGradient id="u5rg"><stop offset="0" stop-color="#d946ef" stop-opacity=".42"/><stop offset="1" stop-color="#d946ef" stop-opacity="0"/></radialGradient><linearGradient id="u5g0" x1="0" y1="0" x2=".35" y2="1"><stop offset="0" stop-color="#c6cabe"/><stop offset=".55" stop-color="#9ca38f"/><stop offset="1" stop-color="#535654"/></linearGradient><linearGradient id="u5g1" x1="0" y1="0" x2=".35" y2="1"><stop offset="0" stop-color="#b3b9a8"/><stop offset=".55" stop-color="#7c8669"/><stop offset="1" stop-color="#434741"/></linearGradient></defs><circle cx="32" cy="32" r="31" fill="url(#u5rg)"/><ellipse cx="32" cy="4.5" rx="12" ry="3" fill="none" stroke="#fcd34d" stroke-width="1.8" opacity=".9"/><g transform="rotate(-35 32 32)"><path d="M47 32L58 22L55.5 32L58 42Z" fill="url(#u5g0)" stroke="#24242d" stroke-width="1.8" stroke-linejoin="round"/><ellipse cx="30" cy="32" rx="19" ry="9" fill="url(#u5g0)" stroke="#24242d" stroke-width="1.8" stroke-linejoin="round"/><path d="M13 33Q30 38 48 33" fill="none" stroke="#f9a8d4" stroke-width="3.2" stroke-linecap="round" stroke-linejoin="round"/><circle cx="24" cy="27" r="1.1" fill="#3f3f2a"/><circle cx="30" cy="26" r="1.1" fill="#3f3f2a"/><circle cx="36" cy="27.5" r="1.1" fill="#3f3f2a"/><circle cx="40" cy="26.5" r="1.1" fill="#3f3f2a"/><circle cx="18" cy="30.5" r="2.2" fill="#111827"/><path d="M28 23L33 17L36 24Z" fill="url(#u5g1)" stroke="#1f1f27" stroke-width="1.2" stroke-linejoin="round"/></g><path d="M8 6.6L8.952 9.048L11.4 10L8.952 10.952L8 13.4L7.048 10.952L4.6 10L7.048 9.048Z" fill="#fde68a"/><path d="M57 53.2L57.784 55.216L59.8 56L57.784 56.784L57 58.8L56.216 56.784L54.2 56L56.216 55.216Z" fill="#fde68a"/></svg>
