<svg xmlns="http://www.w3.org/2000/svg" viewBox="0 0 64 64" width="64" height="64"><defs><radialGradient id="u44rg"><stop offset="0" stop-color="#10b981" stop-opacity=".42"/><stop offset="1" stop-color="#10b981" stop-opacity="0"/></radialGradient><linearGradient id="u44g0" x1="0" y1="0" x2=".35" y2="1"><stop offset="0" stop-color="#e1e7ee"/><stop offset=".55" stop-color="#cbd5e1"/><stop offset="1" stop-color="#6b6f7d"/></linearGradient><linearGradient id="u44g1" x1="0" y1="0" x2=".35" y2="1"><stop offset="0" stop-color="#949ca8"/><stop offset=".55" stop-color="#475569"/><stop offset="1" stop-color="#292f41"/></linearGradient><linearGradient id="u44g2" x1="0" y1="0" x2=".35" y2="1"><stop offset="0" stop-color="#a5aebc"/><stop offset=".55" stop-color="#64748b"/><stop offset="1" stop-color="#373e52"/></linearGradient></defs><circle cx="32" cy="32" r="31" fill="url(#u44rg)"/><ellipse cx="32" cy="33" rx="30" ry="9" fill="none" stroke="#85e5c2" stroke-width="1.4" stroke-opacity=".45" transform="rotate(-22 32 33)"/><path d="M8 22L50 22L53 26L50 31L29 31L27 35L23 51L12 51L16 35L8 31Z" fill="url(#u44g0)" stroke="#2d2d3c" stroke-width="1.8" stroke-linejoin="round"/><path d="M16 35L27 35L23 51L12 51Z" fill="url(#u44g1)" stroke="#151627" stroke-width="1.2" stroke-linejoin="round"/><path d="M27 35Q27 42 33 42L35 31" fill="none" stroke="#94a3b8" stroke-width="1.8" stroke-linecap="round" stroke-linejoin="round"/><path d="M12 25.5L46 25.5" fill="none" stroke="#ffffff" stroke-width="1.2" stroke-linecap="round" stroke-linejoin="round" opacity="0.7"/><rect x="50" y="23.5" width="4" height="3.5" rx="0.8" fill="url(#u44g2)" stroke="#1a1b2d" stroke-width="1" stroke-linejoin="round"/></svg>
