<svg xmlns="http://www.w3.org/2000/svg" viewBox="0 0 64 64" width="64" height="64"><defs><radialGradient id="u37rg"><stop offset="0" stop-color="#10b981" stop-opacity=".42"/><stop offset="1" stop-color="#10b981" stop-opacity="0"/></radialGradient><linearGradient id="u37g0" x1="0" y1="0" x2=".35" y2="1"><stop offset="0" stop-color="#fbfcfd"/><stop offset=".55" stop-color="#f8fafc"/><stop offset="1" stop-color="#81818a"/></linearGradient><linearGradient id="u37g1" x1="0" y1="0" x2=".35" y2="1"><stop offset="0" stop-color="#c0ddfe"/><stop offset=".55" stop-color="#93c5fd"/><stop offset="1" stop-color="#4f678b"/></linearGradient><linearGradient id="u37g2" x1="0" y1="0" x2=".35" y2="1"><stop offset="0" stop-color="#757982"/><stop offset=".55" stop-color="#111827"/><stop offset="1" stop-color="#0e1020"/></linearGradient></defs><circle cx="32" cy="32" r="31" fill="url(#u37rg)"/><ellipse cx="32" cy="33" rx="30" ry="9" fill="none" stroke="#85e5c2" stroke-width="1.4" stroke-opacity=".45" transform="rotate(-22 32 33)"/><path d="M32 4C38.8 17.800000000000004 52.4 24.7 49 40.8C49 50 15 50 15 38.5C13.299999999999997 24.7 28.6 22.400000000000002 32 4Z" fill="url(#u37g0)" stroke="#93c5fd" stroke-width="1.8" stroke-linejoin="round"/><path d="M32 21C35.6 29.400000000000002 42.8 33.599999999999994 41 43.4C41 49 23 49 23 42C22.1 33.599999999999994 30.2 32.2 32 21Z" fill="url(#u37g1)" opacity="0.9"/><path d="M16 46L34 46L48 52L48 57L16 57Z" fill="url(#u37g2)" stroke="#0b0b1b" stroke-width="1.8" stroke-linejoin="round"/><path d="M16 53L48 53" fill="none" stroke="#f8fafc" stroke-width="1.4" stroke-linecap="round" stroke-linejoin="round"/></svg>
