<svg xmlns="http://www.w3.org/2000/svg" viewBox="0 0 64 64" width="64" height="64"><defs><radialGradient id="u28rg"><stop offset="0" stop-color="#ff4500" stop-opacity=".42"/><stop offset="1" stop-color="#ff4500" stop-opacity="0"/></radialGradient><linearGradient id="u28g0" x1="0" y1="0" x2=".35" y2="1"><stop offset="0" stop-color="#b57c7c"/><stop offset=".55" stop-color="#7f1d1d"/><stop offset="1" stop-color="#45131b"/></linearGradient><linearGradient id="u28g1" x1="0" y1="0" x2=".35" y2="1"><stop offset="0" stop-color="#d67b7b"/><stop offset=".55" stop-color="#b91c1c"/><stop offset="1" stop-color="#62121a"/></linearGradient><linearGradient id="u28g2" x1="0" y1="0" x2=".35" y2="1"><stop offset="0" stop-color="#7d838b"/><stop offset=".55" stop-color="#1f2937"/><stop offset="1" stop-color="#151928"/></linearGradient><linearGradient id="u28g3" x1="0" y1="0" x2=".35" y2="1"><stop offset="0" stop-color="#f7f9fc"/><stop offset=".55" stop-color="#f1f5f9"/><stop offset="1" stop-color="#7e7f89"/></linearGradient></defs><circle cx="32" cy="32" r="31" fill="url(#u28rg)"/><path d="M10 60 C4 46 12 38 12 28 C17 35 17 40 20 42 C20 32 26 24 26 14 C33 24 32 32 32 36 C34 28 40 22 40 12 C46 22 44 32 44 40 C47 36 49 32 52 28 C54 38 60 46 54 60 Z" fill="#ff4500" opacity=".12"/><g transform="rotate(45 32 32)"><rect x="28.4" y="41" width="7.2" height="12" rx="2.6999999999999997" fill="url(#u28g0)" stroke="#1f0c19" stroke-width="1.8" stroke-linejoin="round"/><circle cx="32" cy="54.5" r="4.05" fill="url(#u28g1)" stroke="#2a0c19" stroke-width="1.8" stroke-linejoin="round"/><path d="M27.5 41Q33.5 24 35 7Q43.1 24 36.5 41Z" fill="url(#u28g2)" stroke="#0e0e1e" stroke-width="1.8" stroke-linejoin="round"/><path d="M33.35 38Q39.35 24 35 11" fill="none" stroke="#a5a9af" stroke-width="1.1" stroke-linecap="round" stroke-linejoin="round" opacity="0.8"/><rect x="26" y="39" width="12" height="4" rx="1.6" fill="url(#u28g1)" stroke="#2a0c19" stroke-width="1.8" stroke-linejoin="round"/></g><g transform="rotate(-45 32 32)"><rect x="28.4" y="41" width="7.2" height="12" rx="2.6999999999999997" fill="url(#u28g0)" stroke="#1f0c19" stroke-width="1.8" stroke-linejoin="round"/><circle cx="32" cy="54.5" r="4.05" fill="url(#u28g1)" stroke="#2a0c19" stroke-width="1.8" stroke-linejoin="round"/><path d="M27.5 41Q21.5 24 29 7Q29.9 24 36.5 41Z" fill="url(#u28g3)" stroke="#343341" stroke-width="1.8" stroke-linejoin="round"/><path d="M33.35 38Q27.35 24 29 11" fill="none" stroke="#f9fbfd" stroke-width="1.1" stroke-linecap="round" stroke-linejoin="round" opacity="0.8"/><rect x="26" y="39" width="12" height="4" rx="1.6" fill="url(#u28g1)" stroke="#2a0c19" stroke-width="1.8" stroke-linejoin="round"/></g></svg>
