<svg xmlns="http://www.w3.org/2000/svg" viewBox="0 0 64 64" width="64" height="64"><defs><radialGradient id="u11rg"><stop offset="0" stop-color="#ff4500" stop-opacity=".42"/><stop offset="1" stop-color="#ff4500" stop-opacity="0"/></radialGradient><linearGradient id="u11g0" x1="0" y1="0" x2=".35" y2="1"><stop offset="0" stop-color="#89919c"/><stop offset=".55" stop-color="#334155"/><stop offset="1" stop-color="#1f2537"/></linearGradient></defs><circle cx="32" cy="32" r="31" fill="url(#u11rg)"/><path d="M10 60 C4 46 12 38 12 28 C17 35 17 40 20 42 C20 32 26 24 26 14 C33 24 32 32 32 36 C34 28 40 22 40 12 C46 22 44 32 44 40 C47 36 49 32 52 28 C54 38 60 46 54 60 Z" fill="#ff4500" opacity=".12"/><rect x="12" y="12" width="40" height="40" rx="8" fill="url(#u11g0)" stroke="#111223" stroke-width="1.8" stroke-linejoin="round"/><path d="M14 14L50 50M50 14L14 50" fill="none" stroke="#94a3b8" stroke-width="3" stroke-linecap="round" stroke-linejoin="round" opacity="0.85"/><circle cx="32" cy="32" r="13" fill="#1e293b" stroke="#0e0e1e" stroke-width="1.2" stroke-linejoin="round"/><path d="M26 26Q26 19 32 19Q38.5 19 38.5 25Q38.5 29.5 32 31L32 35" fill="none" stroke="#0a0818" stroke-width="7.5" stroke-linecap="round" stroke-linejoin="round"/><path d="M26 26Q26 19 32 19Q38.5 19 38.5 25Q38.5 29.5 32 31L32 35" fill="none" stroke="#fde68a" stroke-width="4.2" stroke-linecap="round" stroke-linejoin="round"/><circle cx="32" cy="41.5" r="2.6" fill="#fde68a" stroke="#0a0818" stroke-width="1.4" stroke-linejoin="round"/></svg>
