<svg xmlns="http://www.w3.org/2000/svg" viewBox="0 0 64 64" width="64" height="64"><defs><radialGradient id="u0rg"><stop offset="0" stop-color="#d946ef" stop-opacity=".42"/><stop offset="1" stop-color="#d946ef" stop-opacity="0"/></radialGradient><linearGradient id="u0g0" x1="0" y1="0" x2=".35" y2="1"><stop offset="0" stop-color="#89919c"/><stop offset=".55" stop-color="#334155"/><stop offset="1" stop-color="#1f2537"/></linearGradient><linearGradient id="u0g1" x1="0" y1="0" x2=".35" y2="1"><stop offset="0" stop-color="#c1cad6"/><stop offset=".55" stop-color="#94a3b8"/><stop offset="1" stop-color="#4f5668"/></linearGradient><linearGradient id="u0g2" x1="0" y1="0" x2=".35" y2="1"><stop offset="0" stop-color="#f2b1fc"/><stop offset=".55" stop-color="#e879f9"/><stop offset="1" stop-color="#794189"/></linearGradient><linearGradient id="u0g3" x1="0" y1="0" x2=".35" y2="1"><stop offset="0" stop-color="#eef2f6"/><stop offset=".55" stop-color="#e2e8f0"/><stop offset="1" stop-color="#767884"/></linearGradient></defs><circle cx="32" cy="32" r="31" fill="url(#u0rg)"/><ellipse cx="32" cy="4.5" rx="12" ry="3" fill="none" stroke="#fcd34d" stroke-width="1.8" opacity=".9"/><g transform="rotate(45 32 32)"><rect x="27" y="15" width="10" height="34" rx="3" fill="url(#u0g0)" stroke="#111223" stroke-width="1.8" stroke-linejoin="round"/><rect x="29" y="8" width="6" height="8" rx="2" fill="url(#u0g1)" stroke="#232435" stroke-width="1.8" stroke-linejoin="round"/><rect x="27" y="25" width="10" height="3" rx="1" fill="url(#u0g2)" stroke="#321c41" stroke-width="1" stroke-linejoin="round"/><rect x="30" y="37" width="4" height="6" rx="1" fill="#22d3ee" stroke="#0e2d3f" stroke-width="1" stroke-linejoin="round"/></g><circle cx="50" cy="11" r="5" fill="url(#u0g3)" stroke="#31303f" stroke-width="1.2" stroke-linejoin="round" opacity="0.9"/><circle cx="56" cy="16" r="3.6" fill="url(#u0g3)" stroke="#31303f" stroke-width="1.2" stroke-linejoin="round" opacity="0.9"/><circle cx="45" cy="6" r="3.2" fill="url(#u0g3)" stroke="#31303f" stroke-width="1.2" stroke-linejoin="round" opacity="0.9"/><path d="M8 6.6L8.952 9.048L11.4 10L8.952 10.952L8 13.4L7.048 10.952L4.6 10L7.048 9.048Z" fill="#fde68a"/><path d="M57 53.2L57.784 55.216L59.8 56L57.784 56.784L57 58.8L56.216 56.784L54.2 56L56.216 55.216Z" fill="#fde68a"/></svg>
