<svg xmlns="http://www.w3.org/2000/svg" viewBox="0 0 64 64" width="64" height="64"><defs><linearGradient id="f" x1="0" y1="0" x2="0.4" y2="1"><stop offset="0" stop-color="#b0b5bf"/><stop offset=".55" stop-color="#9ca3af"/><stop offset="1" stop-color="#4c4e5c"/></linearGradient><radialGradient id="g"><stop offset="0" stop-color="#9ca3af" stop-opacity=".45"/><stop offset="1" stop-color="#9ca3af" stop-opacity="0"/></radialGradient></defs><g transform="rotate(45 32 32)"><path d="M29 8 L32 2 L35 8 L35 40 L46 40 L46 45.5 L34.8 45.5 L34.8 54 A4 4 0 1 1 29.2 54 L29.2 45.5 L18 45.5 L18 40 L29 40 Z" fill="url(#f)" stroke="#242433" stroke-width="2" stroke-linejoin="round"/><path d="M32 2 L35 8 L35 40 L46 40 L46 45.5 L34.8 45.5 L34.8 54 A4 4 0 0 1 32 61.5 Z" fill="#4c4e5c" opacity=".35"/></g></svg>
