<svg xmlns="http://www.w3.org/2000/svg" viewBox="0 0 64 64" width="64" height="64"><defs><radialGradient id="u20rg"><stop offset="0" stop-color="#ff4500" stop-opacity=".42"/><stop offset="1" stop-color="#ff4500" stop-opacity="0"/></radialGradient></defs><circle cx="32" cy="32" r="31" fill="url(#u20rg)"/><path d="M10 60 C4 46 12 38 12 28 C17 35 17 40 20 42 C20 32 26 24 26 14 C33 24 32 32 32 36 C34 28 40 22 40 12 C46 22 44 32 44 40 C47 36 49 32 52 28 C54 38 60 46 54 60 Z" fill="#ff4500" opacity=".12"/><rect x="46" y="4" width="3.55" height="3.55" fill="#1c1621"/><rect x="49.5" y="4" width="3.55" height="3.55" fill="#1c1621"/><rect x="53" y="4" width="3.55" height="3.55" fill="#1c1621"/><rect x="42.5" y="7.5" width="3.55" height="3.55" fill="#1c1621"/><rect x="46" y="7.5" width="3.55" height="3.55" fill="#a99bb6"/><rect x="49.5" y="7.5" width="3.55" height="3.55" fill="#6b5e78"/><rect x="53" y="7.5" width="3.55" height="3.55" fill="#1c1621"/><rect x="39" y="11" width="3.55" height="3.55" fill="#1c1621"/><rect x="42.5" y="11" width="3.55" height="3.55" fill="#a99bb6"/><rect x="46" y="11" width="3.55" height="3.55" fill="#6b5e78"/><rect x="49.5" y="11" width="3.55" height="3.55" fill="#463c51"/><rect x="53" y="11" width="3.55" height="3.55" fill="#1c1621"/><rect x="35.5" y="14.5" width="3.55" height="3.55" fill="#1c1621"/><rect x="39" y="14.5" width="3.55" height="3.55" fill="#a99bb6"/><rect x="42.5" y="14.5" width="3.55" height="3.55" fill="#6b5e78"/><rect x="46" y="14.5" width="3.55" height="3.55" fill="#463c51"/><rect x="49.5" y="14.5" width="3.55" height="3.55" fill="#1c1621"/><rect x="32" y="18" width="3.55" height="3.55" fill="#1c1621"/><rect x="35.5" y="18" width="3.55" height="3.55" fill="#a99bb6"/><rect x="39" y="18" width="3.55" height="3.55" fill="#6b5e78"/><rect x="42.5" y="18" width="3.55" height="3.55" fill="#463c51"/><rect x="46" y="18" width="3.55" height="3.55" fill="#1c1621"/><rect x="28.5" y="21.5" width="3.55" height="3.55" fill="#1c1621"/><rect x="32" y="21.5" width="3.55" height="3.55" fill="#a99bb6"/><rect x="35.5" y="21.5" width="3.55" height="3.55" fill="#6b5e78"/><rect x="39" y="21.5" width="3.55" height="3.55" fill="#463c51"/><rect x="42.5" y="21.5" width="3.55" height="3.55" fill="#1c1621"/><rect x="25" y="25" width="3.55" height="3.55" fill="#1c1621"/><rect x="28.5" y="25" width="3.55" height="3.55" fill="#a99bb6"/><rect x="32" y="25" width="3.55" height="3.55" fill="#6b5e78"/><rect x="35.5" y="25" width="3.55" height="3.55" fill="#463c51"/><rect x="39" y="25" width="3.55" height="3.55" fill="#1c1621"/><rect x="7.5" y="28.5" width="3.55" height="3.55" fill="#1c1621"/><rect x="11" y="28.5" width="3.55" height="3.55" fill="#1c1621"/><rect x="21.5" y="28.5" width="3.55" height="3.55" fill="#1c1621"/><rect x="25" y="28.5" width="3.55" height="3.55" fill="#a99bb6"/><rect x="28.5" y="28.5" width="3.55" height="3.55" fill="#6b5e78"/><rect x="32" y="28.5" width="3.55" height="3.55" fill="#463c51"/><rect x="35.5" y="28.5" width="3.55" height="3.55" fill="#1c1621"/><rect x="7.5" y="32" width="3.55" height="3.55" fill="#1c1621"/><rect x="11" y="32" width="3.55" height="3.55" fill="#6b5e78"/><rect x="14.5" y="32" width="3.55" height="3.55" fill="#1c1621"/><rect x="18" y="32" width="3.55" height="3.55" fill="#1c1621"/><rect x="21.5" y="32" width="3.55" height="3.55" fill="#a99bb6"/><rect x="25" y="32" width="3.55" height="3.55" fill="#6b5e78"/><rect x="28.5" y="32" width="3.55" height="3.55" fill="#463c51"/><rect x="32" y="32" width="3.55" height="3.55" fill="#1c1621"/><rect x="11" y="35.5" width="3.55" height="3.55" fill="#1c1621"/><rect x="14.5" y="35.5" width="3.55" height="3.55" fill="#6b5e78"/><rect x="18" y="35.5" width="3.55" height="3.55" fill="#a99bb6"/><rect x="21.5" y="35.5" width="3.55" height="3.55" fill="#6b5e78"/><rect x="25" y="35.5" width="3.55" height="3.55" fill="#463c51"/><rect x="28.5" y="35.5" width="3.55" height="3.55" fill="#1c1621"/><rect x="14.5" y="39" width="3.55" height="3.55" fill="#1c1621"/><rect x="18" y="39" width="3.55" height="3.55" fill="#6b5e78"/><rect x="21.5" y="39" width="3.55" height="3.55" fill="#6b5e78"/><rect x="25" y="39" width="3.55" height="3.55" fill="#1c1621"/><rect x="11" y="42.5" width="3.55" height="3.55" fill="#1c1621"/><rect x="14.5" y="42.5" width="3.55" height="3.55" fill="#5b3a24"/><rect x="18" y="42.5" width="3.55" height="3.55" fill="#1c1621"/><rect x="21.5" y="42.5" width="3.55" height="3.55" fill="#1c1621"/><rect x="25" y="42.5" width="3.55" height="3.55" fill="#6b5e78"/><rect x="28.5" y="42.5" width="3.55" height="3.55" fill="#1c1621"/><rect x="7.5" y="46" width="3.55" height="3.55" fill="#1c1621"/><rect x="11" y="46" width="3.55" height="3.55" fill="#5b3a24"/><rect x="14.5" y="46" width="3.55" height="3.55" fill="#5b3a24"/><rect x="18" y="46" width="3.55" height="3.55" fill="#1c1621"/><rect x="25" y="46" width="3.55" height="3.55" fill="#1c1621"/><rect x="28.5" y="46" width="3.55" height="3.55" fill="#6b5e78"/><rect x="32" y="46" width="3.55" height="3.55" fill="#1c1621"/><rect x="4" y="49.5" width="3.55" height="3.55" fill="#1c1621"/><rect x="7.5" y="49.5" width="3.55" height="3.55" fill="#5b3a24"/><rect x="11" y="49.5" width="3.55" height="3.55" fill="#5b3a24"/><rect x="14.5" y="49.5" width="3.55" height="3.55" fill="#1c1621"/><rect x="28.5" y="49.5" width="3.55" height="3.55" fill="#1c1621"/><rect x="32" y="49.5" width="3.55" height="3.55" fill="#1c1621"/><rect x="4" y="53" width="3.55" height="3.55" fill="#1c1621"/><rect x="7.5" y="53" width="3.55" height="3.55" fill="#5b3a24"/><rect x="11" y="53" width="3.55" height="3.55" fill="#1c1621"/><rect x="4" y="56.5" width="3.55" height="3.55" fill="#1c1621"/><rect x="7.5" y="56.5" width="3.55" height="3.55" fill="#1c1621"/></svg>
