<svg xmlns="http://www.w3.org/2000/svg" viewBox="0 0 64 64" width="64" height="64"><defs><radialGradient id="u45rg"><stop offset="0" stop-color="#10b981" stop-opacity=".42"/><stop offset="1" stop-color="#10b981" stop-opacity="0"/></radialGradient><linearGradient id="u45g0" x1="0" y1="0" x2=".35" y2="1"><stop offset="0" stop-color="#96ecb5"/><stop offset=".55" stop-color="#4ade80"/><stop offset="1" stop-color="#2a734c"/></linearGradient><linearGradient id="u45g1" x1="0" y1="0" x2=".35" y2="1"><stop offset="0" stop-color="#b9f6cf"/><stop offset=".55" stop-color="#86efac"/><stop offset="1" stop-color="#487c62"/></linearGradient><linearGradient id="u45g2" x1="0" y1="0" x2=".35" y2="1"><stop offset="0" stop-color="#78ca96"/><stop offset=".55" stop-color="#16a34a"/><stop offset="1" stop-color="#105631"/></linearGradient><linearGradient id="u45g3" x1="0" y1="0" x2=".35" y2="1"><stop offset="0" stop-color="#f9dcc5"/><stop offset=".55" stop-color="#f5c39b"/><stop offset="1" stop-color="#80665a"/></linearGradient></defs><circle cx="32" cy="32" r="31" fill="url(#u45rg)"/><ellipse cx="32" cy="33" rx="30" ry="9" fill="none" stroke="#85e5c2" stroke-width="1.4" stroke-opacity=".45" transform="rotate(-22 32 33)"/><path d="M11.35 11L5.95 20.9L10 20.9L8.2 29L14.05 18.2L10 18.2L12.7 11Z" fill="url(#u45g0)" stroke="#162f2b" stroke-width="1.8" stroke-linejoin="round"/><path d="M55.2 20L50.4 28.8L54 28.8L52.4 36L57.6 26.4L54 26.4L56.4 20Z" fill="url(#u45g0)" stroke="#162f2b" stroke-width="1.8" stroke-linejoin="round"/><path d="M52.9 46L49.3 52.6L52 52.6L50.8 58L54.7 50.8L52 50.8L53.8 46Z" fill="url(#u45g1)" stroke="#203233" stroke-width="1.8" stroke-linejoin="round"/><rect x="22" y="44" width="20" height="14" rx="3" fill="url(#u45g2)" stroke="#0c2421" stroke-width="1.8" stroke-linejoin="round"/><rect x="17" y="20" width="30" height="26" rx="9" fill="url(#u45g3)" stroke="#342a30" stroke-width="1.8" stroke-linejoin="round"/><path d="M24 22L24 30M31 21L31 30M38 22L38 30" fill="none" stroke="#c48a65" stroke-width="1.6" stroke-linecap="round" stroke-linejoin="round"/><path d="M19 33Q28 36 30 30" fill="none" stroke="#c48a65" stroke-width="1.6" stroke-linecap="round" stroke-linejoin="round"/></svg>
