<svg xmlns="http://www.w3.org/2000/svg" viewBox="0 0 64 64" width="64" height="64"><defs><radialGradient id="u52rg"><stop offset="0" stop-color="#10b981" stop-opacity=".42"/><stop offset="1" stop-color="#10b981" stop-opacity="0"/></radialGradient><linearGradient id="u52g0" x1="0" y1="0" x2=".35" y2="1"><stop offset="0" stop-color="#a5aebc"/><stop offset=".55" stop-color="#64748b"/><stop offset="1" stop-color="#373e52"/></linearGradient><linearGradient id="u52g1" x1="0" y1="0" x2=".35" y2="1"><stop offset="0" stop-color="#949ca8"/><stop offset=".55" stop-color="#475569"/><stop offset="1" stop-color="#292f41"/></linearGradient><linearGradient id="u52g2" x1="0" y1="0" x2=".35" y2="1"><stop offset="0" stop-color="#fcae78"/><stop offset=".55" stop-color="#f97316"/><stop offset="1" stop-color="#823e17"/></linearGradient><linearGradient id="u52g3" x1="0" y1="0" x2=".35" y2="1"><stop offset="0" stop-color="#7d838b"/><stop offset=".55" stop-color="#1f2937"/><stop offset="1" stop-color="#151928"/></linearGradient><linearGradient id="u52g4" x1="0" y1="0" x2=".35" y2="1"><stop offset="0" stop-color="#e1e7ee"/><stop offset=".55" stop-color="#cbd5e1"/><stop offset="1" stop-color="#6b6f7d"/></linearGradient></defs><circle cx="32" cy="32" r="31" fill="url(#u52rg)"/><ellipse cx="32" cy="33" rx="30" ry="9" fill="none" stroke="#85e5c2" stroke-width="1.4" stroke-opacity=".45" transform="rotate(-22 32 33)"/><rect x="16" y="8" width="7" height="15" rx="3" fill="url(#u52g0)" stroke="#1a1b2d" stroke-width="1.8" stroke-linejoin="round"/><rect x="24" y="5" width="7" height="17" rx="3" fill="url(#u52g0)" stroke="#1a1b2d" stroke-width="1.8" stroke-linejoin="round"/><rect x="32" y="5" width="7" height="17" rx="3" fill="url(#u52g0)" stroke="#1a1b2d" stroke-width="1.8" stroke-linejoin="round"/><rect x="40" y="9" width="6.5" height="14" rx="3" fill="url(#u52g0)" stroke="#1a1b2d" stroke-width="1.8" stroke-linejoin="round"/><rect x="15" y="18" width="32" height="28" rx="8" fill="url(#u52g1)" stroke="#151627" stroke-width="1.8" stroke-linejoin="round"/><rect x="15" y="18" width="32" height="6.5" rx="2" fill="url(#u52g2)" stroke="#351b18" stroke-width="1.8" stroke-linejoin="round"/><rect x="20" y="43" width="22" height="13" rx="3" fill="url(#u52g3)" stroke="#0e0e1e" stroke-width="1.8" stroke-linejoin="round"/><circle cx="23" cy="34" r="1.8" fill="url(#u52g4)" stroke="#2d2d3c" stroke-width="0.8" stroke-linejoin="round"/><circle cx="39" cy="34" r="1.8" fill="url(#u52g4)" stroke="#2d2d3c" stroke-width="0.8" stroke-linejoin="round"/></svg>
